C:\GBW_MyPrograms\KinderuniversiteitApp\Resultaten\Ellis_v10102025\Jullie_lengte\Jullie_lengte_v6.mot
version=1
nRows=8
nColumns=29
inDegrees=yes
endheader
                time	         pelvis_tilt	           pelvis_tx	           pelvis_ty	       hip_flexion_l	       hip_flexion_r	        knee_angle_l	        knee_angle_r	       ankle_angle_l	       ankle_angle_r	    lumbar_extension	hamstrings_r/activation	bifemsh_r/activation	glut_max_r/activation	iliopsoas_r/activation	rect_fem_r/activation	  vasti_r/activation	gastroc_r/activation	 soleus_r/activation	tib_ant_r/activation	hamstrings_l/activation	bifemsh_l/activation	glut_max_l/activation	iliopsoas_l/activation	rect_fem_l/activation	  vasti_l/activation	gastroc_l/activation	 soleus_l/activation	tib_ant_l/activation	
          0.50735871	         -7.88347677	          0.43125491	          0.67405913	         31.71504110	         -7.18473274	        -14.29959526	        -11.08914810	         11.01631663	          6.01103516	          0.85297067	          0.05000000	          0.11910101	          0.05000002	          0.34356549	          0.05000002	          0.05000000	          0.17438588	          0.24718713	          0.05000000	          0.10197732	          0.05000000	          0.05854682	          0.05000000	          0.06834687	          0.05503589	          0.05000000	          0.05000000	          0.23858920	
          0.51750589	         -7.88200279	          0.44201101	          0.67341667	         30.87776683	         -7.01791625	        -13.64876962	        -13.07999755	         10.92419207	          5.47793470	          1.13915556	          0.05000000	          0.10187239	          0.05355354	          0.32368571	          0.05000000	          0.05000000	          0.14916000	          0.23083194	          0.05000000	          0.09900608	          0.05000000	          0.06766312	          0.05000000	          0.05846012	          0.07357246	          0.05000000	          0.05000000	          0.25463411	
          0.52765306	         -7.87432211	          0.45304364	          0.67270361	         29.95405196	         -6.73213764	        -13.50577340	        -15.32360186	         10.77999689	          4.82595403	          1.46379140	          0.05000001	          0.08713599	          0.08953531	          0.28442770	          0.05000000	          0.05000000	          0.12758319	          0.19744083	          0.05000000	          0.09363505	          0.05537584	          0.05787528	          0.05000000	          0.05000354	          0.06292980	          0.06378515	          0.05692355	          0.24055763	
          0.53780024	         -7.86227820	          0.46422897	          0.67196957	         29.01323555	         -6.34207525	        -13.60458267	        -17.75883291	         10.60436532	          4.01249052	          1.80997319	          0.05000000	          0.07453129	          0.10272005	          0.25672569	          0.05000000	          0.05000000	          0.10912758	          0.16887993	          0.05000000	          0.08196432	          0.06644668	          0.08652596	          0.05000000	          0.05000000	          0.10285883	          0.05455828	          0.05000000	          0.26537597	
          0.54794741	         -7.84970977	          0.47534238	          0.67140307	         28.16338072	         -5.82983355	        -13.83876540	        -20.35525843	         10.40929882	          3.00374096	          2.14571135	          0.05000000	          0.06374993	          0.08786103	          0.24393853	          0.05000000	          0.05916637	          0.09334168	          0.14445052	          0.11592254	          0.07245189	          0.05683480	          0.13608996	          0.05000000	          0.05000000	          0.16896545	          0.05000000	          0.05000000	          0.28480336	
          0.55809459	         -7.84003613	          0.48620440	          0.67113372	         27.41357840	         -5.19537138	        -14.19605271	        -23.08532393	         10.20038154	          1.96908154	          2.44651871	          0.05000000	          0.05452816	          0.07515145	          0.23708965	          0.05000000	          0.05336591	          0.07983929	          0.12355496	          0.23069374	          0.07172322	          0.05000000	          0.17363667	          0.05000000	          0.05000000	          0.21746685	          0.05000000	          0.05000000	          0.29765433	
          0.56824176	         -7.83572322	          0.49669009	          0.67115411	         26.72132494	         -4.45967390	        -14.58819110	        -25.84366986	         10.02630994	          1.29052921	          2.69589496	          0.05045830	          0.09944273	          0.06428038	          0.23686846	          0.05000000	          0.05000000	          0.06829011	          0.10568205	          0.22133993	          0.06807672	          0.05000000	          0.18901295	          0.05000000	          0.05000000	          0.24580135	          0.05000000	          0.05000000	          0.30417650	
          0.57838893	         -7.83767967	          0.50676391	          0.67147385	         26.04714908	         -3.65592537	        -14.94254841	        -28.36268119	          9.90845101	          1.17632025	          2.89028662	          0.05955886	          0.11803285	          0.05498187	          0.22787514	          0.05000000	          0.05000000	          0.06874747	          0.09039456	          0.24950312	          0.06727963	          0.05000001	          0.18281120	          0.05000000	          0.05000000	          0.25577439	          0.05000000	          0.05000000	          0.30003489	
